<svg width="24" height="24" viewBox="0 0 24 24" fill="none" xmlns="http://www.w3.org/2000/svg">
<path fill-rule="evenodd" clip-rule="evenodd" d="M14.8491 5.65811C14.3922 5.65792 13.941 5.75916 13.5281 5.95453C13.1151 6.14989 12.7507 6.43451 12.4611 6.78783C12.1715 7.14115 11.9639 7.55436 11.8534 7.99764C11.7429 8.44091 11.7322 8.9032 11.8221 9.35111C11.853 9.50631 11.8467 9.66664 11.8036 9.81891C11.7605 9.97118 11.6819 10.1111 11.5742 10.227C11.4665 10.343 11.3329 10.4318 11.1842 10.486C11.0355 10.5403 10.8761 10.5585 10.7191 10.5391C8.56879 10.275 6.54179 9.39107 4.88506 7.99511C4.91606 8.59711 5.12506 9.23711 5.57806 9.90711L6.25706 10.9111L5.14206 11.3861L4.92706 11.4781C5.08706 11.6611 5.27906 11.8481 5.49406 12.0331C5.78148 12.2791 6.08553 12.505 6.40406 12.7091L6.41506 12.7161H6.41606L7.96406 13.6551L6.34406 14.4651C6.26406 14.5051 6.18406 14.5411 6.10406 14.5731C6.4524 14.8626 6.83615 15.1065 7.24606 15.2991L8.63606 15.9561L7.47206 16.9601C6.83706 17.5081 6.19806 17.9171 5.36906 18.1331C6.6405 18.8104 8.0595 19.1631 9.50006 19.1601C14.3061 19.1601 18.1761 15.3251 18.1761 10.6261V10.1061L18.6011 9.80711C19.2651 9.34111 19.7341 8.71111 20.0701 7.99011H17.9101L17.6381 7.42011C17.3876 6.89278 16.9927 6.44731 16.4992 6.13542C16.0057 5.82354 15.4339 5.65803 14.8501 5.65811H14.8491ZM3.56906 12.9581C3.4747 13.0662 3.40469 13.1933 3.3638 13.3308C3.3229 13.4683 3.31208 13.613 3.33206 13.7551C3.44506 14.5561 3.92406 15.2461 4.45406 15.7731C4.59806 15.9161 4.75206 16.0531 4.91406 16.1841L4.83906 16.2041C4.35806 16.3241 3.70906 16.3491 2.62806 16.2441C2.42392 16.2241 2.21856 16.2673 2.03981 16.3679C1.86107 16.4686 1.7176 16.6217 1.62885 16.8067C1.5401 16.9916 1.51036 17.1993 1.54367 17.4017C1.57698 17.6041 1.67173 17.7914 1.81506 17.9381C2.81583 18.961 4.01135 19.7731 5.33108 20.3265C6.65081 20.8799 8.06801 21.1633 9.49906 21.1601C15.2121 21.1601 19.8981 16.7241 20.1631 11.1261C21.4531 10.0431 22.0981 8.57611 22.4461 7.24311C22.4848 7.09516 22.489 6.94031 22.4585 6.79047C22.4279 6.64062 22.3634 6.49977 22.2699 6.37876C22.1765 6.25774 22.0565 6.15978 21.9192 6.0924C21.7819 6.02502 21.631 5.99003 21.4781 5.99011H19.1251C18.5495 5.09644 17.7084 4.40555 16.72 4.01455C15.7315 3.62354 14.6454 3.55206 13.6142 3.81016C12.583 4.06825 11.6587 4.64295 10.9709 5.45349C10.2832 6.26403 9.86676 7.26968 9.78006 8.32911C7.93672 7.84926 6.28739 6.80992 5.05906 5.35411C4.95028 5.2255 4.81077 5.12644 4.65348 5.06614C4.49619 5.00585 4.32622 4.98626 4.15933 5.0092C3.99245 5.03215 3.83407 5.09687 3.69888 5.19738C3.5637 5.29788 3.4561 5.43091 3.38606 5.58411C2.78006 6.90611 2.66406 8.43011 3.34006 9.98011L3.10606 10.0801C2.88213 10.1755 2.7007 10.3493 2.59576 10.569C2.49083 10.7886 2.4696 11.039 2.53606 11.2731C2.72206 11.9251 3.14006 12.5011 3.56806 12.9581H3.56906Z" fill="white"/>
</svg>
