<svg width="60" height="65" viewBox="0 0 60 65" fill="none" xmlns="http://www.w3.org/2000/svg">
<path d="M60 64.072C43.4315 64.072 30 49.729 30 32.036C30 14.343 43.4315 -7.73385e-07 60 0L60 19.4308C53.4808 19.4308 48.1959 25.0743 48.1959 32.036C48.1959 38.9976 53.4808 44.6412 60 44.6412L60 64.072Z" fill="#E55733"/>
<path d="M-2.62268e-06 3.05176e-05C16.5685 2.97442e-05 30 14.343 30 32.036C30 49.729 16.5685 64.072 0 64.072L-7.95369e-07 44.6412C6.51921 44.6412 11.8041 38.9977 11.8041 32.036C11.8041 25.0744 6.51921 19.4309 -1.82731e-06 19.4309L-2.62268e-06 3.05176e-05Z" fill="#E55733"/>
</svg>
