<svg width="488" height="218" viewBox="0 0 488 218" fill="none" xmlns="http://www.w3.org/2000/svg">
<path d="M118.414 186.783C116.434 191.6 116.063 198.533 115.548 203.793M115.548 203.793C115.538 203.895 116.814 203.766 116.913 203.754C121.347 203.197 128.287 199.18 131.267 196.179M115.548 203.793C132.636 181.94 149.797 155.669 166.837 129.787C180.586 108.903 194.257 88.2715 207.747 70.4176" stroke="#E55733" stroke-width="5" stroke-miterlimit="1.5" stroke-linecap="round" stroke-linejoin="round"/>
<path fill-rule="evenodd" clip-rule="evenodd" d="M17.9228 106.26C15.8697 110.023 13.657 113.546 11.1749 117.041C10.7768 117.602 9.21008 120.092 8.35994 120.077C6.92983 120.051 6.14207 118.439 5.90411 117.274C5.25044 114.076 5.6795 110.921 5.56293 107.709C5.53909 107.046 5.21729 104.832 5.72819 104.296C7.74383 102.183 14.7223 105.586 17.2276 106.4" fill="#F5BD33"/>
<path d="M17.9228 106.26C15.8697 110.023 13.6569 113.546 11.1749 117.041C10.7768 117.602 9.21008 120.092 8.35994 120.077C6.92983 120.051 6.14207 118.439 5.90411 117.274C5.25044 114.076 5.67949 110.921 5.56293 107.709C5.53908 107.046 5.21729 104.832 5.72819 104.296C7.74383 102.183 14.7223 105.586 17.2276 106.4" stroke="#F5BD33" stroke-width="5" stroke-miterlimit="1.5" stroke-linecap="round" stroke-linejoin="round"/>
<path d="M12.0587 105.912C14.3283 94.1488 18.8056 83.1713 22.3025 71.7795C24.3382 65.1486 26.1084 57.8361 32.3946 53.7977C39.3573 49.324 48.7181 50.5232 56.6013 52.1491C76.876 56.3308 95.2231 65.8285 115.043 71.1698" stroke="#F5BD33" stroke-width="5" stroke-miterlimit="1.5" stroke-linecap="round" stroke-linejoin="round"/>
<path d="M59.3282 161.519C67.1757 146.304 71.7958 129.332 78.2162 113.501" stroke="#00C2FF" stroke-width="5" stroke-miterlimit="1.5" stroke-linecap="round" stroke-linejoin="round"/>
<path fill-rule="evenodd" clip-rule="evenodd" d="M70.6088 153.476C65.4841 152.255 60.5128 150.608 55.42 149.306C56.7969 153.06 56.8899 158.144 58.7618 161.625C59.1344 162.319 62.0724 160.627 62.4409 160.427C65.4732 158.778 68.1388 155.639 70.7507 153.376" fill="#00C2FF"/>
<path d="M70.6088 153.476C65.4841 152.255 60.5128 150.608 55.42 149.306C56.7969 153.06 56.8899 158.144 58.7618 161.625C59.1344 162.319 62.0724 160.627 62.4409 160.427C65.4732 158.778 68.1388 155.639 70.7507 153.376" stroke="#00C2FF" stroke-width="5" stroke-miterlimit="1.5" stroke-linecap="round" stroke-linejoin="round"/>
<path fill-rule="evenodd" clip-rule="evenodd" d="M203.256 137.011C198.754 137.183 193.432 138.641 189.59 141.161C191.831 136.299 191.705 131.096 189.405 126.291C193.778 128.853 200.445 126.237 204.047 123.37C201.551 127.022 201.555 132.835 203.256 137.011Z" stroke="#F5BD33" stroke-width="5" stroke-miterlimit="1.5" stroke-linecap="round" stroke-linejoin="round"/>
<path fill-rule="evenodd" clip-rule="evenodd" d="M220.79 166.24C214.519 168.934 207.78 170.875 201.249 172.863C201.764 166.125 202.531 159.4 203.137 152.675C210.103 150.46 216.711 146.826 223.1 143.369C222.829 151.818 221.988 159.535 220.79 166.24Z" stroke="#F5BD33" stroke-width="5" stroke-miterlimit="1.5" stroke-linecap="round" stroke-linejoin="round"/>
<path d="M130.636 99.5691C132.471 73.4713 134.288 47.4998 136.728 21.4282C113.557 47.9765 92.7886 77.9088 74.2659 107.712C75.9777 74.0327 81.7753 40.5384 86.503 7.17741C64.9211 22.1292 48.7422 46.8011 32.3688 66.6876" stroke="#00C2FF" stroke-width="5" stroke-miterlimit="1.5" stroke-linecap="round" stroke-linejoin="round"/>
<path d="M377.294 96.1631C374.137 82.0065 379.052 69.2701 391.085 61.1273C398.435 56.154 411.713 54.1358 417.093 63.055C420.833 69.2563 412.347 84.0407 406.166 76.5841C403.017 72.7855 405.262 65.5211 407.338 61.8253C413.292 51.2296 426.298 48.0453 437.523 51.5637C447.437 54.6708 453.654 65.3062 451.619 75.5242C450.377 81.7602 443.58 89.8859 436.516 85.4796C425.59 78.6649 444.187 66.7154 452.279 67.3196C481.541 69.5034 477.138 110.608 464.33 127.132" stroke="#00C2FF" stroke-width="5" stroke-miterlimit="1.5" stroke-linecap="round" stroke-linejoin="round"/>
<path d="M161 164.043C156.493 173.597 153.092 183.535 149.03 193.255" stroke="#00C2FF" stroke-width="5" stroke-miterlimit="1.5" stroke-linecap="round" stroke-linejoin="round"/>
<path d="M190.04 158.842C178.009 171.209 167.141 185.079 157.128 199.094" stroke="#00C2FF" stroke-width="5" stroke-miterlimit="1.5" stroke-linecap="round" stroke-linejoin="round"/>
<path d="M198.846 187.591C187.564 191.181 173.359 201.098 162.906 207.495" stroke="#00C2FF" stroke-width="5" stroke-miterlimit="1.5" stroke-linecap="round" stroke-linejoin="round"/>
<path d="M278.178 179.958C278.904 174.982 279.772 170.055 280.706 165.116" stroke="#00FFA3" stroke-width="5" stroke-miterlimit="1.5" stroke-linecap="round" stroke-linejoin="round"/>
<path d="M287.997 185.308C290.656 180.269 294.116 175.756 297.253 171.025" stroke="#00FFA3" stroke-width="5" stroke-miterlimit="1.5" stroke-linecap="round" stroke-linejoin="round"/>
<path d="M295.268 193.486C299.234 190.825 303.6 188.521 308.229 187.333" stroke="#00FFA3" stroke-width="5" stroke-miterlimit="1.5" stroke-linecap="round" stroke-linejoin="round"/>
<path fill-rule="evenodd" clip-rule="evenodd" d="M352.611 32.7103C343.862 26.7523 328.123 27.7676 318.027 47.645C315.568 52.4851 307.842 52.1127 306.535 57.4324C303.164 71.1476 330.984 84.0447 341.054 85.5644C344.823 86.1331 350.516 86.8514 353.568 83.8331C357.175 80.2654 352.974 73.6033 355.302 69.2786C361.425 57.9052 366.997 42.5067 352.611 32.7103Z" fill="white" stroke="#2D32FF" stroke-width="5" stroke-miterlimit="1.5" stroke-linecap="round" stroke-linejoin="round"/>
<path d="M349.895 82.167C350.775 81.2134 349.998 80.1011 349.325 79.2679C347.733 77.2973 345.722 75.8154 343.686 74.3396C336.446 69.0909 328.444 63.61 319.884 60.7914C317.062 59.8625 309.724 57.6594 310.957 63.1535" stroke="#2D32FF" stroke-width="5" stroke-miterlimit="1.5" stroke-linecap="round" stroke-linejoin="round"/>
<path d="M351.085 67.5202C347.616 62.5915 343.186 58.4199 337.961 55.4175C335.361 53.9231 332.447 52.9462 329.647 51.9102C325.214 50.2698 320.506 49.2556 315.808 50.1723" stroke="#2D32FF" stroke-width="5" stroke-miterlimit="1.5" stroke-linecap="round" stroke-linejoin="round"/>
<path fill-rule="evenodd" clip-rule="evenodd" d="M336.241 69.1622C335.298 70.6603 333.596 72.6779 331.882 73.1963C328.647 74.1747 324.8 72.5431 324.425 68.9278C324.335 68.0672 324.502 67.1674 324.722 66.3416C324.97 65.415 325.586 64.1115 326.198 63.3752C329.75 65.0335 333.237 67.1792 336.241 69.1622Z" fill="white" stroke="#2D32FF" stroke-width="5" stroke-miterlimit="1.5" stroke-linecap="round" stroke-linejoin="round"/>
<path fill-rule="evenodd" clip-rule="evenodd" d="M355.595 35.05C353.577 33.295 351.679 31.8468 348.971 30.8064C349.54 29.6399 350.314 28.6761 351.178 27.5066C353.355 24.5599 358.048 23.8165 358.574 28.171C358.843 30.3969 356.797 33.2843 355.595 35.05Z" fill="white" stroke="#2D32FF" stroke-width="5" stroke-miterlimit="1.5" stroke-linecap="round" stroke-linejoin="round"/>
<path fill-rule="evenodd" clip-rule="evenodd" d="M306.294 37.4316C307.984 38.3255 309.712 39.2094 311.332 40.2291L306.294 37.4316Z" fill="white"/>
<path d="M306.294 37.4316C307.984 38.3255 309.712 39.2094 311.332 40.2291" stroke="#00C2FF" stroke-width="5" stroke-miterlimit="1.5" stroke-linecap="round" stroke-linejoin="round"/>
<path fill-rule="evenodd" clip-rule="evenodd" d="M309.138 21.0583C311.745 24.8459 314.561 28.4437 317.402 32.0547L309.138 21.0583Z" fill="white"/>
<path d="M309.138 21.0583C311.745 24.8459 314.561 28.4437 317.402 32.0547" stroke="#00C2FF" stroke-width="5" stroke-miterlimit="1.5" stroke-linecap="round" stroke-linejoin="round"/>
<path fill-rule="evenodd" clip-rule="evenodd" d="M322.91 20.833C323.413 22.6795 323.921 24.5247 324.433 26.3691L322.91 20.833Z" fill="white"/>
<path d="M322.91 20.833C323.413 22.6795 323.921 24.5247 324.433 26.3691" stroke="#00C2FF" stroke-width="5" stroke-miterlimit="1.5" stroke-linecap="round" stroke-linejoin="round"/>
<path fill-rule="evenodd" clip-rule="evenodd" d="M366.419 54.9144C367.847 54.987 369.278 55.0536 370.707 55.1064L366.419 54.9144Z" fill="white"/>
<path d="M366.419 54.9144C367.847 54.987 369.278 55.0536 370.707 55.1064" stroke="#00C2FF" stroke-width="5" stroke-miterlimit="1.5" stroke-linecap="round" stroke-linejoin="round"/>
<path fill-rule="evenodd" clip-rule="evenodd" d="M364.142 61.2435C367.982 62.1311 371.72 63.3304 375.392 64.7535L364.142 61.2435Z" fill="white"/>
<path d="M364.142 61.2435C367.982 62.1311 371.72 63.3304 375.392 64.7535" stroke="#00C2FF" stroke-width="5" stroke-miterlimit="1.5" stroke-linecap="round" stroke-linejoin="round"/>
<path fill-rule="evenodd" clip-rule="evenodd" d="M362.097 67.0751C362.98 68.7136 363.77 70.3885 364.614 72.0456L362.097 67.0751Z" fill="white"/>
<path d="M362.097 67.0751C362.98 68.7136 363.77 70.3885 364.614 72.0456" stroke="#00C2FF" stroke-width="5" stroke-miterlimit="1.5" stroke-linecap="round" stroke-linejoin="round"/>
<path d="M218.686 125.359C225.657 130.224 232.384 135.534 239.33 140.478" stroke="#00C2FF" stroke-width="5" stroke-miterlimit="1.5" stroke-linecap="round" stroke-linejoin="round"/>
<path d="M259.674 139.533C254.739 136.406 250.085 131.655 245.566 127.946C235.375 119.582 224.082 112.433 213.242 104.979" stroke="#2D32FF" stroke-width="5" stroke-miterlimit="1.5" stroke-linecap="round" stroke-linejoin="round"/>
<path d="M210.846 83.1776C219.844 89.4656 229.644 94.511 238.813 100.539C255.456 111.481 272.435 124.214 287.709 137.034" stroke="#00C2FF" stroke-width="5" stroke-miterlimit="1.5" stroke-linecap="round" stroke-linejoin="round"/>
<path d="M231.357 77.6111C246.58 88.0128 261.995 98.0454 276.885 108.962" stroke="#2D32FF" stroke-width="5" stroke-miterlimit="1.5" stroke-linecap="round" stroke-linejoin="round"/>
<path d="M252.573 74.514C260.327 79.9421 268.453 84.8526 276.254 90.225" stroke="#00FFA3" stroke-width="5" stroke-miterlimit="1.5" stroke-linecap="round" stroke-linejoin="round"/>
<path d="M252.39 56.1338C265.745 66.1417 279.964 74.848 293.549 84.5062" stroke="#F5BD33" stroke-width="5" stroke-miterlimit="1.5" stroke-linecap="round" stroke-linejoin="round"/>
<path d="M268.026 50.1069C276.873 56.1562 286.069 61.942 295.2 67.5712" stroke="#00FFA3" stroke-width="5" stroke-miterlimit="1.5" stroke-linecap="round" stroke-linejoin="round"/>
<path fill-rule="evenodd" clip-rule="evenodd" d="M141.83 133.109C143.266 130.477 145.911 126.817 145.489 121.436C145.056 115.915 138.479 111.272 132.579 111.569C126.507 111.875 123.072 115.957 119.762 120.873C110.983 133.913 97.9568 151.965 92.0887 162.924C91.7665 163.526 92.6725 173.731 93.1313 179.12C93.3101 181.221 93.285 183.797 95.3426 185.043C97.3882 186.282 99.7935 185.23 101.729 184.263C106.123 182.068 110.135 179.176 114.153 176.374C115.728 175.276 133.499 146.965 141.83 133.109Z" fill="white" stroke="#2D32FF" stroke-width="5" stroke-miterlimit="1.5" stroke-linecap="round" stroke-linejoin="round"/>
<path fill-rule="evenodd" clip-rule="evenodd" d="M122.307 117.431C121.438 118.498 120.614 119.66 119.797 120.873C118.315 123.074 116.712 125.418 115.043 127.846C115.248 127.918 115.45 127.988 115.652 128.058C123.127 130.633 130.946 135.799 136.528 141.866C138.517 138.635 140.347 135.632 141.864 133.109C142.022 132.82 142.194 132.519 142.375 132.205C137.48 125.443 130.363 119.464 122.307 117.431Z" fill="white" stroke="#2D32FF" stroke-width="5" stroke-miterlimit="1.5" stroke-linecap="round" stroke-linejoin="round"/>
<path d="M92.0444 163.123C92.6952 162.771 94.1181 162.486 94.8645 162.383C98.8256 161.837 100.281 166.037 100.5 169.2C101.365 168.307 102.472 167.453 103.699 167.124C107.304 166.158 109.103 169.298 108.482 172.465C111.165 171.28 115.569 172.145 114.31 176.216" stroke="#2D32FF" stroke-width="5" stroke-miterlimit="1.5" stroke-linecap="round" stroke-linejoin="round"/>
<path d="M92.872 175.848C95.2168 175.419 97.7823 175.884 100.052 176.977C102.417 178.115 104.461 179.934 105.601 182.13" stroke="#2D32FF" stroke-width="5" stroke-miterlimit="1.5" stroke-linecap="round" stroke-linejoin="round"/>
<path d="M100.486 169.192C102.617 165.001 106.282 158.378 109.099 153.884C113.591 146.717 118.591 138.531 123.384 131.564" stroke="#2D32FF" stroke-width="5" stroke-miterlimit="1.5" stroke-linecap="round" stroke-linejoin="round"/>
<path fill-rule="evenodd" clip-rule="evenodd" d="M108.485 172.459C116.044 161.247 123.014 147.657 131.051 136.774L108.485 172.459Z" fill="white"/>
<path d="M108.485 172.459C116.044 161.247 123.014 147.657 131.051 136.774" stroke="#2D32FF" stroke-width="5" stroke-miterlimit="1.5" stroke-linecap="round" stroke-linejoin="round"/>
<path d="M174.642 149.928C175.4 148.462 176.194 146.983 176.819 145.454" stroke="#2D32FF" stroke-width="5" stroke-miterlimit="1.5" stroke-linecap="round" stroke-linejoin="round"/>
<path d="M97.0687 108.553C98.8952 103.106 100.838 97.5912 102.172 91.9974" stroke="#2D32FF" stroke-width="5" stroke-miterlimit="1.5" stroke-linecap="round" stroke-linejoin="round"/>
<path fill-rule="evenodd" clip-rule="evenodd" d="M297.065 120.881C297.631 119.85 299.441 118.462 298.774 117.493C295.967 113.413 292.968 108.301 295.171 103.258C296.063 101.214 297.67 98.8814 299.746 97.9081C301.151 97.2499 303.082 97.7776 303.555 99.4127C304.054 101.142 302.371 102.953 301.691 104.403C301.184 105.486 301.132 106.577 302.302 107.216C302.657 107.409 303.046 107.546 303.437 107.647C303.976 107.788 304.527 107.832 305.077 107.735C306.909 107.411 308.652 105.305 309.336 103.679C309.771 102.645 309.814 101.426 308.865 100.682C307.391 99.5259 304.913 100.951 303.696 99.3884C303.495 99.13 303.333 98.8373 303.249 98.5194C302.677 96.3481 304.814 95.1269 306.586 94.6692C308.286 94.2298 310.35 94.0415 312.036 94.6361C315.802 95.9652 316.541 100.593 315.772 104.024C317.269 100.978 317.434 97.4031 318.424 94.1883C318.861 92.7723 319.33 91.1414 320.505 90.1407C321.53 89.2687 322.843 89.4477 323.574 90.6311C324.328 91.8521 324.457 93.4788 324.441 94.8751C324.395 99.0359 323.032 103.051 320.736 106.466C322.802 104.329 324.844 102.158 326.888 99.9996C327.835 98.9999 328.778 97.7262 329.862 97.3442C331.364 96.8142 332.68 97.7169 332.935 99.2815C333.157 100.641 332.689 101.961 332.068 103.155C330.821 105.552 328.802 107.517 326.777 109.258C324.527 111.195 322.191 113.105 319.516 114.406C321.618 113.733 323.652 113.007 325.682 112.138C327.606 111.315 330.27 109.351 332.493 109.624C334.129 109.825 334.332 111.348 333.823 112.75C333.177 114.529 331.34 115.733 329.75 116.591C326.528 118.329 323.034 119.552 319.461 120.334C318.256 120.598 317.041 120.811 315.818 120.973C315.282 121.043 314.411 120.966 313.929 121.195C313.377 121.459 312.917 122.193 312.544 122.649C311.581 123.827 310.602 125.048 309.807 126.348" fill="white"/>
<path d="M297.065 120.881C297.631 119.85 299.441 118.462 298.774 117.493C295.967 113.413 292.968 108.301 295.171 103.258C296.063 101.214 297.67 98.8814 299.746 97.9081C301.151 97.2499 303.082 97.7776 303.555 99.4127C304.054 101.142 302.371 102.953 301.691 104.403C301.184 105.486 301.132 106.577 302.302 107.216C302.657 107.409 303.046 107.546 303.437 107.647C303.976 107.788 304.527 107.832 305.077 107.735C306.909 107.411 308.652 105.305 309.336 103.679C309.771 102.645 309.814 101.426 308.865 100.682C307.391 99.5259 304.913 100.951 303.696 99.3884C303.495 99.13 303.333 98.8373 303.249 98.5194C302.677 96.3481 304.814 95.1269 306.586 94.6692C308.286 94.2298 310.35 94.0415 312.036 94.6361C315.802 95.9652 316.541 100.593 315.772 104.024C317.269 100.978 317.434 97.4031 318.424 94.1883C318.861 92.7723 319.33 91.1414 320.505 90.1407C321.53 89.2687 322.843 89.4477 323.574 90.6311C324.328 91.8521 324.457 93.4788 324.441 94.8751C324.395 99.0359 323.032 103.051 320.736 106.466C322.802 104.329 324.844 102.158 326.888 99.9996C327.835 98.9999 328.778 97.7262 329.862 97.3442C331.364 96.8142 332.68 97.7169 332.935 99.2815C333.157 100.641 332.689 101.961 332.068 103.155C330.821 105.552 328.802 107.517 326.777 109.258C324.527 111.195 322.191 113.105 319.516 114.406C321.618 113.733 323.652 113.007 325.682 112.138C327.606 111.315 330.27 109.351 332.493 109.624C334.129 109.825 334.332 111.348 333.823 112.75C333.177 114.529 331.34 115.733 329.75 116.591C326.528 118.329 323.034 119.552 319.461 120.334C318.256 120.598 317.041 120.811 315.818 120.973C315.282 121.043 314.411 120.966 313.929 121.195C313.377 121.459 312.917 122.193 312.544 122.649C311.581 123.827 310.602 125.048 309.807 126.348" stroke="#E55733" stroke-width="5" stroke-miterlimit="1.5" stroke-linecap="round" stroke-linejoin="round"/>
<path fill-rule="evenodd" clip-rule="evenodd" d="M387.88 166.657C387.695 168.81 387.859 171.875 386.583 173.67C384.546 176.537 381.312 172.992 380.215 171.228C379.925 170.76 379.639 170.288 379.374 169.804C379.06 169.229 378.755 168.646 378.473 168.054C376.6 169.083 374.134 170.052 371.971 169.992C370.159 169.942 369.109 168.726 369.474 166.919C369.909 164.76 371.387 162.68 372.66 160.935C371.693 158.875 370.676 156.771 370.234 154.538C369.809 152.391 371.256 151.1 373.354 151.41C374.032 151.51 374.697 151.688 375.346 151.906C376.22 152.199 378.254 153.07 378.779 153.275C378.85 153.264 379.173 152.802 379.238 152.727C379.678 152.22 380.126 151.724 380.596 151.243C380.951 150.881 381.309 150.521 381.671 150.165C382.958 148.899 386.1 145.367 387.791 147.839C387.963 148.091 388.081 148.369 388.175 148.657C388.33 149.133 388.396 149.65 388.447 150.146C388.544 151.079 388.538 152.017 388.539 152.953C388.54 154.351 388.448 155.761 388.509 157.158C388.51 157.175 388.508 157.193 388.506 157.21C389.28 157.534 390.058 157.853 390.824 158.196C392.494 158.945 395.33 159.541 395.415 161.53C395.461 162.606 394.635 163.403 393.796 163.934C392.091 165.012 390.128 165.591 388.216 166.176" fill="white"/>
<path d="M387.88 166.657C387.695 168.81 387.859 171.875 386.583 173.67C384.546 176.537 381.312 172.992 380.215 171.228C379.925 170.76 379.639 170.288 379.374 169.804C379.06 169.229 378.755 168.646 378.473 168.054C376.6 169.083 374.134 170.052 371.971 169.992C370.159 169.942 369.109 168.726 369.474 166.919C369.909 164.76 371.387 162.68 372.66 160.935C371.693 158.875 370.676 156.771 370.234 154.538C369.809 152.391 371.256 151.1 373.354 151.41C374.032 151.51 374.697 151.688 375.346 151.906C376.22 152.199 378.254 153.07 378.779 153.275C378.85 153.264 379.173 152.802 379.238 152.727C379.678 152.22 380.126 151.724 380.596 151.243C380.951 150.881 381.309 150.521 381.671 150.165C382.958 148.899 386.1 145.367 387.791 147.839C387.963 148.091 388.081 148.369 388.175 148.657C388.33 149.133 388.396 149.65 388.447 150.146C388.544 151.079 388.538 152.017 388.539 152.953C388.54 154.351 388.448 155.761 388.509 157.158C388.51 157.175 388.508 157.193 388.506 157.21C389.28 157.534 390.058 157.853 390.824 158.196C392.494 158.945 395.33 159.541 395.415 161.53C395.461 162.606 394.635 163.403 393.796 163.934C392.091 165.012 390.128 165.591 388.216 166.176" stroke="#2D32FF" stroke-width="5" stroke-miterlimit="1.5" stroke-linecap="round" stroke-linejoin="round"/>
<path d="M227.455 208.627C223.725 206.339 219.411 205.113 215.716 202.813C215.09 202.423 212.774 201.656 212.469 200.928M212.469 200.928C212.073 199.983 214.274 198.363 214.777 197.971C217.313 195.992 221.766 192.582 224.753 190.732M212.469 200.928C224.387 201.306 240.774 191.993 240.361 181.158M240.361 181.158C240.251 178.29 238.964 175.315 236.105 172.385C230.699 166.845 223.979 174.709 228.823 179.928C231.498 182.809 236.465 182.345 240.361 181.158ZM240.361 181.158C241.48 180.817 242.51 180.417 243.372 180.018C254.063 175.08 261.328 161.713 260.757 150.178" stroke="#00FFA3" stroke-width="5" stroke-miterlimit="1.5" stroke-linecap="round" stroke-linejoin="round"/>
<path fill-rule="evenodd" clip-rule="evenodd" d="M321.356 151.984C318.5 148.696 314.832 145.435 310.431 144.519C309.809 149.299 307.545 155.081 307.743 159.841C307.766 160.39 311.648 159.01 311.822 158.932C315.632 157.209 319.1 155.04 322.587 152.754" fill="#F5BD33"/>
<path d="M321.356 151.984C318.5 148.696 314.832 145.435 310.431 144.519C309.809 149.299 307.545 155.081 307.743 159.841C307.766 160.39 311.648 159.01 311.822 158.932C315.632 157.209 319.1 155.04 322.587 152.754" stroke="#F5BD33" stroke-width="5" stroke-miterlimit="1.5" stroke-linecap="round" stroke-linejoin="round"/>
<path d="M315.199 148.949C322.912 132.617 340.474 120.074 358.729 124.017C363.42 125.031 369.183 126.289 372.427 130.178C374.267 132.383 375.734 136.03 374.671 138.84C372.685 144.088 365.243 143.952 362.365 139.373C360.913 137.064 360.508 132.57 361.411 130.001C362.052 128.175 363.077 126.435 364.664 125.254C378.14 115.231 401.124 122.596 409.42 136.486" stroke="#F5BD33" stroke-width="5" stroke-miterlimit="1.5" stroke-linecap="round" stroke-linejoin="round"/>
<path d="M354.52 167.122C351.248 168.536 347.14 170.415 345.462 173.805C343.775 177.213 346.74 182.857 350.889 182.42C354.985 181.989 357.59 178.549 359.968 175.582" stroke="#00C2FF" stroke-width="5" stroke-miterlimit="1.5" stroke-linecap="round" stroke-linejoin="round"/>
<path d="M365.081 180.385C364.73 182.759 362.928 184.901 361.488 186.722C358.747 190.186 355.436 193.181 350.865 193.769C343.168 194.757 334.53 188.886 333.565 181.042C333.232 178.34 334.155 175.986 335.179 173.538C336.393 170.639 338.48 168.185 340.824 166.105C343.647 163.6 347.005 161.123 350.664 160.021" stroke="#00C2FF" stroke-width="5" stroke-miterlimit="1.5" stroke-linecap="round" stroke-linejoin="round"/>
<path d="M370.565 185.018C370.308 188.155 367.768 190.989 366.36 193.647C360.561 204.6 346.01 210.875 334.347 205.505C324.14 200.804 315.969 188.187 318.197 176.368C320.922 161.907 337.73 154.78 346.584 154.558" stroke="#00C2FF" stroke-width="5" stroke-miterlimit="1.5" stroke-linecap="round" stroke-linejoin="round"/>
<path d="M173.177 89.6422C168.425 94.687 163.538 99.2999 158.257 103.768C157.409 104.485 153.951 107.745 152.676 107.4C150.531 106.819 150.053 104.027 150.208 102.134C150.63 96.9402 152.666 92.2215 153.904 87.2093C154.16 86.1743 154.649 82.6271 155.656 81.9916M243.5 41.0738C232.33 35.5768 218.745 30.181 206.278 34.4682C195.022 38.338 189.134 48.981 183.146 58.4691C172.858 74.7697 161.275 90.0586 152.674 107.398" stroke="#00FFA3" stroke-width="5" stroke-miterlimit="1.5" stroke-linecap="round" stroke-linejoin="round"/>
<path d="M85.5289 124.179C84.7019 127.218 83.7494 130.246 83.0688 133.32C82.2807 136.88 79.7452 152.374 87.8843 145.667C88.6468 145.038 89.3122 144.283 89.967 143.546C91.1427 142.222 92.337 140.925 93.4054 139.51C102.19 127.878 108.823 114.386 114.936 101.229" stroke="#F5BD33" stroke-width="5" stroke-miterlimit="1.5" stroke-linecap="round" stroke-linejoin="round"/>
<path d="M280.771 144.621C278.331 147.503 276.238 150.619 273.937 153.598" stroke="#E55733" stroke-width="5" stroke-miterlimit="1.5" stroke-linecap="round" stroke-linejoin="round"/>
<path d="M291.277 145.512C285.98 148.668 280.945 152.451 276.192 156.363" stroke="#E55733" stroke-width="5" stroke-miterlimit="1.5" stroke-linecap="round" stroke-linejoin="round"/>
</svg>
