<svg width="976" height="489" viewBox="0 0 976 489" fill="none" xmlns="http://www.w3.org/2000/svg">
<rect x="852.972" y="366.75" width="122.25" height="122.25" transform="rotate(-90 852.972 366.75)" fill="#2D32FF"/>
<rect x="365.361" y="122.25" width="122.25" height="122.25" transform="rotate(-90 365.361 122.25)" fill="#F5BD33"/>
<rect x="122.25" y="365.361" width="120.861" height="122.25" fill="white"/>
<rect x="365.361" y="122.25" width="122.25" height="122.25" fill="#2D32FF"/>
<rect x="243.111" y="365.361" width="122.25" height="122.25" fill="#2D32FF"/>
<rect x="487.611" y="122.25" width="122.25" height="122.25" fill="#E55733"/>
<rect x="609.861" y="244.5" width="120.861" height="120.861" fill="white"/>
<path d="M852.972 244.5L852.972 366.75L975.222 244.5L852.972 244.5Z" fill="white"/>
<path d="M365.361 3.05804e-06L365.361 122.25L487.611 -7.62939e-06L365.361 3.05804e-06Z" fill="white"/>
<path d="M487.611 365.361H446.861V406.111H406.111V446.861H365.361V487.611H487.611V365.361Z" fill="#F5BD33"/>
<path d="M730.722 183.375L670.291 122.25L609.861 183.375L670.291 244.5L730.722 183.375Z" fill="#2D32FF"/>
<path d="M487.429 182.93L426.453 121.953L365.476 182.93L487.429 182.93Z" fill="white"/>
<path d="M487.429 243.906L426.453 182.929L365.476 243.906L487.429 243.906Z" fill="white"/>
<path d="M243.111 365.361C243.111 399.119 216.055 426.486 182.68 426.486C149.306 426.486 122.25 399.119 122.25 365.361H158.903C158.903 378.644 169.548 389.412 182.68 389.412C195.812 389.412 206.458 378.644 206.458 365.361H243.111Z" fill="#E55733"/>
<path d="M730.722 366.75C764.48 366.75 791.847 394.117 791.847 427.875C791.847 461.633 764.48 489 730.722 489L730.722 451.926C744.005 451.926 754.772 441.158 754.772 427.875C754.772 414.592 744.004 403.824 730.722 403.824L730.722 366.75Z" fill="#2D32FF"/>
<path d="M122.25 487.611C122.25 453.852 149.306 426.486 182.68 426.486C216.055 426.486 243.111 453.852 243.111 487.611L206.458 487.611C206.458 474.328 195.812 463.56 182.68 463.56C169.548 463.56 158.903 474.328 158.903 487.611L122.25 487.611Z" fill="#2D32FF"/>
<path d="M852.972 489C819.213 489 791.847 461.633 791.847 427.875C791.847 394.117 819.213 366.75 852.972 366.75L852.972 403.824C839.689 403.824 828.921 414.592 828.921 427.875C828.921 441.158 839.689 451.926 852.972 451.926L852.972 489Z" fill="#F5BD33"/>
<path d="M730.722 122.25C697.73 122.25 670.986 94.8834 670.986 61.125C670.986 27.3666 697.73 -1.44209e-06 730.722 0L730.722 37.0742C717.741 37.0742 707.217 47.8421 707.217 61.125C707.217 74.4079 717.741 85.1758 730.722 85.1758L730.722 122.25Z" fill="#E55733"/>
<path d="M609.861 0C643.619 -1.47563e-06 670.986 27.3666 670.986 61.125C670.986 94.8834 643.619 122.25 609.861 122.25L609.861 85.1758C623.144 85.1758 633.912 74.4079 633.912 61.125C633.912 47.8421 623.144 37.0742 609.861 37.0742L609.861 0Z" fill="#E55733"/>
<path d="M526.604 122.25H487.611V244.5H609.861V206.56H526.604V122.25Z" fill="white"/>
<path d="M404.502 283.196L365.361 304.93L404.502 326.665L426.486 365.361L448.47 326.665L487.611 304.93L448.47 283.196L426.486 244.5L404.502 283.196Z" fill="#E55733"/>
<path d="M852.972 427.875C852.972 461.633 880.338 489 914.097 489L975.222 427.875L914.097 366.75C880.338 366.75 852.972 394.117 852.972 427.875Z" fill="#E55733"/>
<path d="M975.222 61.125L914.097 0L852.972 61.125L914.097 122.25L975.222 61.125Z" fill="#E55733"/>
<path fill-rule="evenodd" clip-rule="evenodd" d="M558.776 376.23C558.776 370.503 554.133 365.86 548.406 365.86C542.679 365.86 538.036 370.503 538.036 376.23V387.598L532.419 377.714C529.589 372.735 523.259 370.992 518.279 373.822C513.3 376.651 511.557 382.982 514.387 387.961L520.779 399.21L509.531 392.818C504.552 389.988 498.221 391.731 495.391 396.71C492.562 401.69 494.305 408.02 499.284 410.85L509.167 416.466H497.8C492.072 416.466 487.429 421.109 487.429 426.837C487.429 432.564 492.072 437.207 497.8 437.207H509.169L499.284 442.824C494.305 445.654 492.562 451.984 495.391 456.964C498.221 461.943 504.552 463.686 509.531 460.856L520.778 454.465L514.387 465.711C511.557 470.691 513.3 477.021 518.279 479.851C523.259 482.68 529.589 480.938 532.419 475.958L538.036 466.074V477.443C538.036 483.17 542.679 487.813 548.406 487.813C554.133 487.813 558.776 483.17 558.776 477.443V466.074L564.393 475.958C567.223 480.938 573.553 482.68 578.533 479.851C583.512 477.021 585.255 470.691 582.425 465.711L576.034 454.465L587.281 460.856C592.26 463.686 598.591 461.943 601.42 456.964C604.25 451.984 602.507 445.654 597.528 442.824L587.643 437.207H599.012C604.74 437.207 609.383 432.564 609.383 426.837C609.383 421.109 604.74 416.466 599.012 416.466H587.645L597.528 410.85C602.507 408.02 604.25 401.69 601.421 396.71C598.591 391.731 592.26 389.988 587.281 392.818L576.033 399.21L582.425 387.961C585.255 382.982 583.512 376.651 578.532 373.822C573.553 370.992 567.222 372.735 564.393 377.714L558.776 387.598V376.23Z" fill="#E55733"/>
<path d="M774.823 138.057C791.702 154.936 791.847 183.387 791.847 183.387C791.847 183.387 764.624 184.472 747.745 167.594C730.866 150.715 730.722 122.264 730.722 122.264C730.722 122.264 757.944 121.179 774.823 138.057Z" fill="#F5BD33"/>
<path d="M808.87 138.057C791.991 154.936 791.847 183.387 791.847 183.387C791.847 183.387 819.069 184.472 835.948 167.594C852.827 150.715 852.972 122.264 852.972 122.264C852.972 122.264 825.749 121.179 808.87 138.057Z" fill="#F5BD33"/>
<path d="M774.823 228.693C791.702 211.814 791.847 183.363 791.847 183.363C791.847 183.363 764.624 182.278 747.745 199.156C730.866 216.035 730.722 244.486 730.722 244.486C730.722 244.486 757.944 245.571 774.823 228.693Z" fill="#F5BD33"/>
<path d="M808.87 228.693C791.991 211.814 791.847 183.363 791.847 183.363C791.847 183.363 819.069 182.278 835.948 199.156C852.827 216.035 852.972 244.486 852.972 244.486C852.972 244.486 825.749 245.571 808.87 228.693Z" fill="#F5BD33"/>
<path fill-rule="evenodd" clip-rule="evenodd" d="M914.267 138.213C889.571 138.213 869.551 158.233 869.551 182.93C869.551 207.626 889.571 227.646 914.267 227.646C938.963 227.646 958.984 207.626 958.984 182.93C958.984 158.233 938.963 138.213 914.267 138.213ZM853.291 182.93C853.291 149.253 880.591 121.953 914.267 121.953C947.944 121.953 975.244 149.253 975.244 182.93C975.244 216.606 947.944 243.906 914.267 243.906C880.591 243.906 853.291 216.606 853.291 182.93Z" fill="#F5BD33"/>
<path d="M510.115 304.93C496.381 311.173 487.611 320.675 487.611 331.318C487.611 350.12 514.977 365.361 548.736 365.361C582.494 365.361 609.861 350.12 609.861 331.318C609.861 320.675 601.091 311.173 587.356 304.93C601.091 298.688 609.861 289.186 609.861 278.543C609.861 259.741 582.494 244.5 548.736 244.5C514.977 244.5 487.611 259.741 487.611 278.543C487.611 289.186 496.381 298.688 510.115 304.93Z" fill="#F5BD33"/>
<path fill-rule="evenodd" clip-rule="evenodd" d="M742.012 321.331C726.958 316.153 726.958 295.097 742.012 289.919L745.88 288.588L743.781 285.109C735.615 271.572 749.299 255.443 764.196 261.046L768.024 262.486L768.678 258.487C771.22 242.925 792.185 239.269 799.955 253.032L801.952 256.569L805.051 253.921C817.112 243.616 835.548 254.144 832.556 269.627L831.787 273.606L835.882 273.548C851.818 273.322 859.099 293.108 846.744 303.066L843.569 305.625L846.744 308.184C859.099 318.142 851.818 337.928 835.882 337.702L831.787 337.644L832.556 341.623C835.548 357.106 817.112 367.634 805.051 357.329L801.952 354.681L799.955 358.218C792.185 371.981 771.22 368.325 768.678 352.763L768.024 348.764L764.196 350.204C749.299 355.807 735.615 339.678 743.781 326.141L745.88 322.662L742.012 321.331ZM760.841 305.625C768.199 309.61 771.459 318.471 768.413 326.201C776.639 324.576 784.896 329.291 787.586 337.15C792.832 330.675 802.22 329.038 809.389 333.348C809.199 325.052 815.327 317.829 823.619 316.573C818.083 310.34 818.083 300.91 823.619 294.677C815.327 293.421 809.199 286.198 809.389 277.902C802.22 282.212 792.832 280.575 787.586 274.1C784.896 281.959 776.639 286.674 768.413 285.049C771.459 292.779 768.199 301.64 760.841 305.625Z" fill="#2D32FF"/>
<path fill-rule="evenodd" clip-rule="evenodd" d="M792.312 60.9763L792.313 60.9762L792.313 60.9765L792.312 60.9763ZM792.313 60.9762H792.313L792.313 60.9764L792.313 60.9765L792.313 60.9767L792.313 60.9766L792.313 60.9762ZM792.313 60.9766L792.313 60.9767L792.313 60.9768L792.313 60.9766ZM792.314 60.9764L792.313 60.9764L792.313 60.9762L829.634 12.1138L815.969 4.22401L792.313 60.976L792.313 60.9759L800.203 1.44461e-06L784.423 0L792.313 60.9757L768.657 4.22401L754.992 12.1138L792.313 60.976L792.313 60.9762L792.312 60.9761L743.45 23.6556L735.561 37.3211L792.311 60.976L731.336 53.0867L731.336 68.8662L792.312 60.9763L792.313 60.9766L792.312 60.977L735.561 84.6322L743.451 98.2977L792.312 60.9777L754.992 109.839L768.657 117.728L792.313 60.977L784.423 121.953H800.203L792.313 60.9769L792.313 60.9768L792.313 60.9771L815.969 117.728L829.634 109.839L792.314 60.9777L841.175 98.2977L849.065 84.6322L792.314 60.977L792.313 60.9765L853.29 68.8662V53.0867L792.314 60.9763L849.065 37.3211L841.176 23.6556L792.314 60.9764ZM792.313 60.9765L792.313 60.9769L792.313 60.9767L792.313 60.9765ZM792.313 60.9762L792.313 60.976L792.313 60.9761L792.313 60.9762Z" fill="#E55733"/>
<path d="M686.461 298.232C711.985 299.046 730.722 301.736 730.722 304.93C730.722 308.124 711.985 310.815 686.461 311.628C703.934 330.251 715.28 345.403 713.022 347.661C710.763 349.92 695.612 338.573 676.989 321.101C676.176 346.624 673.485 365.361 670.291 365.361C667.097 365.361 664.406 346.624 663.593 321.101C644.971 338.573 629.819 349.92 627.56 347.661C625.302 345.403 636.648 330.251 654.121 311.628C628.598 310.815 609.861 308.124 609.861 304.93C609.861 301.736 628.598 299.046 654.121 298.232C636.648 279.61 625.302 264.458 627.56 262.2C629.819 259.941 644.971 271.288 663.593 288.76C664.406 263.237 667.097 244.5 670.291 244.5C673.485 244.5 676.176 263.237 676.989 288.76C695.612 271.288 710.763 259.941 713.022 262.2C715.28 264.458 703.934 279.61 686.461 298.232Z" fill="#2D32FF"/>
<path fill-rule="evenodd" clip-rule="evenodd" d="M515.675 94.9298L487.43 93.8841L519.153 60.9766L487.43 28.0691L515.673 27.0219L518.877 0L548.406 30.6318L577.936 0L581.139 27.0219L609.383 28.0691L577.659 60.9766L609.383 93.8841L581.138 94.9298L577.936 121.953L548.406 91.3214L518.877 121.953L515.675 94.9298Z" fill="#2D32FF"/>
<path fill-rule="evenodd" clip-rule="evenodd" d="M243.523 426.835C277.192 426.835 304.488 399.547 304.499 365.881C304.511 399.547 331.807 426.835 365.476 426.835L365.476 426.836C365.476 426.836 365.476 426.836 365.476 426.836C331.81 426.836 304.516 454.12 304.499 487.782C304.483 454.119 277.189 426.836 243.523 426.836L243.523 426.835Z" fill="white"/>
<path fill-rule="evenodd" clip-rule="evenodd" d="M670.359 382.121C645.663 382.121 625.643 402.141 625.643 426.837C625.643 451.533 645.663 471.553 670.359 471.553C695.055 471.553 715.075 451.533 715.075 426.837C715.075 402.141 695.055 382.121 670.359 382.121ZM609.382 426.837C609.382 393.16 636.683 365.86 670.359 365.86C704.035 365.86 731.336 393.16 731.336 426.837C731.336 460.513 704.035 487.813 670.359 487.813C636.683 487.813 609.382 460.513 609.382 426.837Z" fill="#F5BD33"/>
<path fill-rule="evenodd" clip-rule="evenodd" d="M670.359 410.64C661.414 410.64 654.162 417.891 654.162 426.837C654.162 435.782 661.414 443.034 670.359 443.034C679.304 443.034 686.556 435.782 686.556 426.837C686.556 417.891 679.304 410.64 670.359 410.64ZM637.965 426.837C637.965 408.946 652.468 394.443 670.359 394.443C688.25 394.443 702.753 408.946 702.753 426.837C702.753 444.727 688.25 459.231 670.359 459.231C652.468 459.231 637.965 444.727 637.965 426.837Z" fill="#E55733"/>
<path d="M0 426.486C0 392.727 27.3666 365.361 61.125 365.361C94.8834 365.361 122.25 392.727 122.25 426.486V487.611H0V426.486Z" fill="#F5BD33"/>
<path d="M304.236 366.75C337.994 366.75 365.361 339.383 365.361 305.625C365.361 271.867 337.994 244.5 304.236 244.5V305.625H243.111C243.111 339.383 270.477 366.75 304.236 366.75Z" fill="#F5BD33"/>
</svg>
