<svg width="14" height="13" viewBox="0 0 14 13" fill="none" xmlns="http://www.w3.org/2000/svg">
<path fill-rule="evenodd" clip-rule="evenodd" d="M0 1.5C0 1.23478 0.105357 0.98043 0.292893 0.792893C0.48043 0.605357 0.734784 0.5 1 0.5H13C13.2652 0.5 13.5196 0.605357 13.7071 0.792893C13.8946 0.98043 14 1.23478 14 1.5C14 1.76522 13.8946 2.01957 13.7071 2.20711C13.5196 2.39464 13.2652 2.5 13 2.5H1C0.734784 2.5 0.48043 2.39464 0.292893 2.20711C0.105357 2.01957 0 1.76522 0 1.5ZM0 6.5C0 6.23478 0.105357 5.98043 0.292893 5.79289C0.48043 5.60536 0.734784 5.5 1 5.5H13C13.2652 5.5 13.5196 5.60536 13.7071 5.79289C13.8946 5.98043 14 6.23478 14 6.5C14 6.76522 13.8946 7.01957 13.7071 7.20711C13.5196 7.39464 13.2652 7.5 13 7.5H1C0.734784 7.5 0.48043 7.39464 0.292893 7.20711C0.105357 7.01957 0 6.76522 0 6.5ZM0 11.5C0 11.2348 0.105357 10.9804 0.292893 10.7929C0.48043 10.6054 0.734784 10.5 1 10.5H6C6.26522 10.5 6.51957 10.6054 6.70711 10.7929C6.89464 10.9804 7 11.2348 7 11.5C7 11.7652 6.89464 12.0196 6.70711 12.2071C6.51957 12.3946 6.26522 12.5 6 12.5H1C0.734784 12.5 0.48043 12.3946 0.292893 12.2071C0.105357 12.0196 0 11.7652 0 11.5Z" fill="black"/>
</svg>
