<svg width="13" height="13" viewBox="0 0 13 13" fill="none" xmlns="http://www.w3.org/2000/svg">
<path fill-rule="evenodd" clip-rule="evenodd" d="M11.9706 0.656854C12.1581 0.844391 12.2635 1.09874 12.2635 1.36396C12.2635 1.62918 12.1581 1.88353 11.9706 2.07107L7.72793 6.31371L11.9706 10.5563C12.1581 10.7439 12.2635 10.9982 12.2635 11.2635C12.2635 11.5287 12.1581 11.783 11.9706 11.9706C11.783 12.1581 11.5287 12.2635 11.2635 12.2635C10.9983 12.2635 10.7439 12.1581 10.5564 11.9706L6.31372 7.72792L2.07108 11.9706C1.88354 12.1581 1.62919 12.2635 1.36397 12.2635C1.09876 12.2635 0.844403 12.1581 0.656867 11.9706C0.46933 11.783 0.363973 11.5287 0.363973 11.2635C0.363973 10.9982 0.46933 10.7439 0.656867 10.5563L4.89951 6.31371L0.656867 2.07107C0.46933 1.88353 0.363974 1.62918 0.363974 1.36396C0.363974 1.09874 0.46933 0.844391 0.656867 0.656854C0.844403 0.469318 1.09876 0.363961 1.36397 0.363961C1.62919 0.363961 1.88354 0.469318 2.07108 0.656854L6.31372 4.89949L10.5564 0.656854C10.7439 0.469318 10.9983 0.363961 11.2635 0.363961C11.5287 0.363961 11.783 0.469318 11.9706 0.656854Z" fill="black"/>
</svg>
