<svg width="741" height="574" viewBox="0 0 741 574" fill="none" xmlns="http://www.w3.org/2000/svg">
<path d="M697.815 287C697.815 445.228 569.028 573.5 410.157 573.5C251.287 573.5 122.5 445.228 122.5 287C122.5 128.772 251.287 0.5 410.157 0.5C569.028 0.5 697.815 128.772 697.815 287Z" stroke="#363636"/>
<path d="M532.979 287C532.979 354.557 477.992 409.326 410.157 409.326C342.323 409.326 287.336 354.557 287.336 287C287.336 219.443 342.323 164.674 410.157 164.674C477.992 164.674 532.979 219.443 532.979 287Z" stroke="#363636"/>
<path d="M609.902 286.358C609.902 397.347 519.655 487.324 408.326 487.324C296.997 487.324 206.749 397.347 206.749 286.358C206.749 175.369 296.997 85.392 408.326 85.392C519.655 85.392 609.902 175.369 609.902 286.358Z" stroke="#363636"/>
<path d="M3 413.032H25.6694C27.0968 413.032 28.4452 412.377 29.3264 411.254L42.7446 394.157C44.4666 391.962 47.7197 391.768 49.6908 393.741L80.7273 424.813C81.5993 425.686 82.7826 426.177 84.0165 426.177H116.682C117.665 426.177 118.623 425.865 119.418 425.286L132.827 415.523C134.766 414.111 137.461 414.406 139.049 416.204L153.599 432.684C155.252 434.556 158.087 434.788 160.022 433.21L209.509 392.855C211.444 391.277 214.279 391.509 215.932 393.381L229.517 408.768C231.463 410.971 234.94 410.839 236.712 408.493L257.15 381.436C257.769 380.616 258.643 380.025 259.635 379.754L291.838 370.961C293.323 370.556 294.511 369.442 295.01 367.986L309.287 326.407C309.743 325.079 310.774 324.029 312.093 323.548L335.378 315.072C336.477 314.672 337.385 313.872 337.92 312.832L346.658 295.867C348.356 292.569 353.043 292.491 354.85 295.73L377.964 337.155C379.106 339.202 381.593 340.079 383.767 339.2L418.5 325.15C419.815 324.618 420.816 323.514 421.216 322.153L446.411 236.547C447.111 234.167 449.556 232.757 451.967 233.342L471.345 238.045C473.356 238.533 475.448 237.633 476.476 235.836L494.73 203.939C496.105 201.536 499.263 200.86 501.501 202.49L510.974 209.387C513.28 211.066 516.538 210.292 517.844 207.758L518.849 205.806C520.391 202.812 524.505 202.4 526.61 205.028L548.218 231.998C550.554 234.914 555.202 234.023 556.292 230.449L579.254 155.214C580.074 152.528 583.07 151.177 585.626 152.34L613.961 165.234C615.732 166.04 617.817 165.658 619.187 164.277L644.88 138.375C645.753 137.495 646.941 137 648.18 137H685.603C687.683 137 689.51 138.382 690.076 140.384L702.226 183.35C703.296 187.136 708.294 187.963 710.527 184.723L734.359 150.144" stroke="white" stroke-width="4.64886" stroke-linecap="round"/>
<path d="M28.2055 415.032H0V462.096C0 463.38 1.04072 464.421 2.32447 464.421H737.846C739.13 464.421 740.171 463.38 740.171 462.096V152.144L709.143 191.302C707.966 192.788 705.601 192.315 705.085 190.491L691.003 140.692C690.72 139.691 689.807 139 688.767 139H648.618C647.998 139 647.404 139.247 646.967 139.687L619.453 167.426C618.768 168.116 617.726 168.307 616.84 167.905L584.62 153.242C583.342 152.661 581.844 153.336 581.434 154.679L556.413 236.659C555.868 238.446 553.544 238.892 552.376 237.434L525.775 204.232C524.723 202.918 522.666 203.124 521.895 204.621L518.007 212.169C517.355 213.436 515.725 213.823 514.573 212.984L500.81 202.963C499.691 202.148 498.112 202.486 497.424 203.687L477.014 239.353C476.5 240.251 475.454 240.701 474.449 240.457L451.22 234.819C450.014 234.527 448.792 235.232 448.442 236.422L422.305 325.23C422.104 325.911 421.604 326.463 420.946 326.729L383.27 341.969C382.184 342.408 380.94 341.97 380.369 340.947L354.144 293.945C353.241 292.326 350.897 292.365 350.048 294.014L338.909 315.641C338.641 316.161 338.187 316.561 337.638 316.761L312.456 325.928C311.797 326.168 311.281 326.693 311.053 327.357L296.016 371.15C295.767 371.877 295.173 372.434 294.43 372.637L260.276 381.963C259.78 382.098 259.343 382.394 259.033 382.804L236.403 412.763C235.517 413.935 233.778 414.002 232.806 412.9L215.715 393.543C214.949 392.675 213.66 392.504 212.693 393.142L159.281 428.37C158.486 428.895 157.45 428.881 156.669 428.335L139.013 415.983C138.2 415.414 137.115 415.425 136.313 416.009L120.212 427.732C119.815 428.021 119.336 428.177 118.844 428.177H84.4584C83.8415 428.177 83.2499 427.932 82.8139 427.495L49.2427 393.886C48.2571 392.899 46.6306 392.996 45.7696 394.093L30.034 414.143C29.5934 414.704 28.9192 415.032 28.2055 415.032Z" fill="url(#paint0_linear_232_24)"/>
<defs>
<linearGradient id="paint0_linear_232_24" x1="370" y1="61.5" x2="482" y2="388.5" gradientUnits="userSpaceOnUse">
<stop offset="0.0243228" stop-color="#2D32FF"/>
<stop offset="1" stop-opacity="0"/>
</linearGradient>
</defs>
</svg>
